<?xml version="1.0" encoding="UTF-8"?>
<svg width="128" height="128" viewBox="0 0 128 128" fill="none" xmlns="http://www.w3.org/2000/svg">
  <defs>
    <linearGradient id="g1" x1="0" y1="0" x2="128" y2="128" gradientUnits="userSpaceOnUse">
      <stop stop-color="#FF4D4D"/>
      <stop offset="1" stop-color="#A10000"/>
    </linearGradient>
  </defs>
  <rect rx="26" ry="26" x="4" y="4" width="120" height="120" fill="url(#g1)"/>
  <circle cx="64" cy="64" r="42" fill="white" opacity="0.15"/>
  <g fill="#fff">
    <path d="M64 28c-14 0-26 12-26 26 0 18 26 46 26 46s26-28 26-46c0-14-12-26-26-26zm0 36a10 10 0 1 1 0-20 10 10 0 0 1 0 20z"/>
    <path d="M59 58h10v6H59z" opacity="0.85"/>
  </g>
  <text x="64" y="112" text-anchor="middle" font-size="14" font-family="Segoe UI, Roboto, Helvetica, Arial, sans-serif" fill="#fff">Smart Tourist</text>
</svg>
